<svg width="23" height="23" viewBox="0 0 23 23" fill="none" xmlns="http://www.w3.org/2000/svg">
<path d="M20.9245 0.107788L20.9168 0.110801L0.695481 8.47601C0.524944 8.54591 0.374391 8.657 0.25729 8.79933C0.140189 8.94166 0.0601924 9.11079 0.0244555 9.2916C-0.0149861 9.48095 -0.00673596 9.67713 0.0484635 9.86249C0.103663 10.0478 0.20408 10.2166 0.34068 10.3535L4.13197 14.1448C4.31898 14.3317 4.56534 14.4474 4.82858 14.4722C5.09182 14.4969 5.35545 14.429 5.57403 14.2803L14.8109 7.92605C14.8474 7.90123 14.8913 7.8899 14.9352 7.89402C14.9791 7.89814 15.0202 7.91746 15.0514 7.94864C15.0826 7.97981 15.1019 8.02089 15.106 8.06479C15.1101 8.10869 15.0988 8.15265 15.074 8.18909L8.7201 17.4257C8.57128 17.6441 8.50329 17.9076 8.52784 18.1708C8.55239 18.4339 8.66794 18.6803 8.85459 18.8674L12.6465 22.6593C12.777 22.79 12.9379 22.8863 13.1148 22.9394C13.2917 22.9925 13.479 23.001 13.6599 22.9639C13.8781 22.9199 14.0786 22.8125 14.2362 22.6553C14.3455 22.5457 14.4319 22.4155 14.4902 22.2721L22.8889 2.08492L22.8922 2.07555C23.002 1.80048 23.0286 1.49928 22.9689 1.20922C22.9093 0.919159 22.7659 0.652965 22.5565 0.443569C22.3471 0.234172 22.0809 0.0907635 21.7908 0.0310834C21.5007 -0.028596 21.1996 -0.00192826 20.9245 0.107788Z" fill="#1F2B6C"/>
</svg>
