<svg width="52" height="45" viewBox="0 0 52 45" fill="none" xmlns="http://www.w3.org/2000/svg">
<path fill-rule="evenodd" clip-rule="evenodd" d="M17.7485 14.5942C17.384 14.8187 16.6974 16.2274 17.008 17.4635C17.47 19.3017 19.1133 20.0191 19.1133 20.0191C19.1133 20.0191 21.6841 23.4135 21.6841 25.3876C21.6841 27.3616 21.6841 28.1285 20.9952 29.7754C20.3062 31.4223 6.78262 33.3964 6.2085 43.1052H25.8921L45.7918 43.1073C45.2177 33.3985 31.6941 31.4244 31.0052 29.7775C30.3162 28.1307 30.3162 27.3637 30.3162 25.3897C30.3162 23.4156 32.887 20.0212 32.887 20.0212C32.887 20.0212 34.5303 19.3038 34.9923 17.4656C35.303 16.2296 34.6163 14.8208 34.2518 14.5964C35.2261 11.6235 37.172 1.3748 26.1082 1.00542C26.059 0.998435 26.0101 0.999681 25.9614 1.00112C14.8283 1.37268 16.7742 11.6214 17.7485 14.5942Z" stroke="#1F2B6C" stroke-width="2" stroke-linecap="round" stroke-linejoin="round"/>
<path fill-rule="evenodd" clip-rule="evenodd" d="M1 36.6365C4.24791 34.3592 8.29741 33.4755 8.6274 32.6867C9.17278 31.383 9.17278 30.7759 9.17278 29.2132C9.17278 27.6505 7.13764 24.9634 7.13764 24.9634C7.13764 24.9634 5.83677 24.3954 5.47104 22.9402C5.22513 21.9618 5.7687 20.8466 6.05724 20.6689C5.28596 18.3155 3.74557 10.2023 12.5588 9.90819C12.5974 9.90705 12.6361 9.90606 12.675 9.91159C14.5757 9.97505 15.9914 10.4068 17.0352 11.0681C17.1712 12.5372 17.4931 13.8154 17.7483 14.5942C17.3838 14.8186 16.6972 16.2274 17.0078 17.4634C17.4698 19.3016 19.1131 20.0191 19.1131 20.0191C19.1131 20.0191 19.1667 20.0898 19.2584 20.2169C19.2117 20.385 19.1655 20.537 19.1218 20.6706C19.4103 20.8482 19.9539 21.9635 19.7079 22.9419C19.3422 24.3971 18.0413 24.965 18.0413 24.965C18.0413 24.965 16.0062 27.6522 16.0062 29.2149C16.0062 30.5177 16.0062 31.1563 16.3222 32.0882C12.1215 33.9144 6.57168 36.9608 6.20833 43.1052H25.8919L45.7917 43.1073C45.4215 36.8481 39.6693 33.8037 35.4437 31.9892C35.7353 31.0966 35.7353 30.4577 35.7353 29.1894C35.7353 27.6267 33.7001 24.9396 33.7001 24.9396C33.7001 24.9396 32.3993 24.3717 32.0335 22.9165C31.7876 21.938 32.3312 20.8228 32.6197 20.6451C32.6015 20.5896 32.5829 20.5308 32.564 20.469C32.7606 20.1879 32.8869 20.0212 32.8869 20.0212C32.8869 20.0212 34.5302 19.3038 34.9922 17.4656C35.3028 16.2295 34.6162 14.8208 34.2517 14.5963C34.5171 13.7864 34.8546 12.4366 34.9816 10.8935C36.0056 10.3161 37.3557 9.94336 39.1213 9.88443C39.1599 9.88329 39.1986 9.88231 39.2375 9.88783C47.9959 10.1802 46.4555 18.2934 45.6842 20.6468C45.9728 20.8245 46.5164 21.9397 46.2704 22.9182C45.9047 24.3733 44.6038 24.9413 44.6038 24.9413C44.6038 24.9413 42.5687 27.6284 42.5687 29.1911C42.5687 30.7538 42.5687 31.3609 43.1141 32.6647C43.4529 33.4745 47.7126 34.3844 51 36.8V43.2165L39.0665 43.2152H28.2556C28.2561 43.2237 28.2566 43.2321 28.2571 43.2406L12.504 43.239H1V36.6365Z" stroke="#1F2B6C" stroke-width="2" stroke-linecap="round" stroke-linejoin="round"/>
</svg>
