<svg width="18" height="12" viewBox="0 0 18 12" fill="none" xmlns="http://www.w3.org/2000/svg">
<path d="M8.89675 0.763665C6.06258 0.763665 3.15532 2.40402 0.866608 5.68473C0.801279 5.7794 0.765479 5.89132 0.763732 6.00633C0.761984 6.12134 0.794368 6.23429 0.85679 6.33091C2.61533 9.08362 5.48367 11.2363 8.89675 11.2363C12.2727 11.2363 15.2 9.07708 16.9618 6.31818C17.0228 6.22346 17.0552 6.11319 17.0552 6.00055C17.0552 5.8879 17.0228 5.77763 16.9618 5.68291C15.196 2.95565 12.2473 0.763665 8.89675 0.763665Z" stroke="#526AE9" stroke-width="1.5" stroke-linecap="round" stroke-linejoin="round"/>
<path d="M8.90901 8.9091C10.5157 8.9091 11.8181 7.60667 11.8181 6.00003C11.8181 4.39339 10.5157 3.09095 8.90901 3.09095C7.30238 3.09095 5.99994 4.39339 5.99994 6.00003C5.99994 7.60667 7.30238 8.9091 8.90901 8.9091Z" stroke="#526AE9" stroke-width="1.5" stroke-miterlimit="10"/>
</svg>
