<svg width="35" height="35" viewBox="0 0 35 35" fill="none" xmlns="http://www.w3.org/2000/svg">
<path d="M21.644 31.884C22.2308 31.5452 22.6574 30.9843 22.8299 30.3247C23.0024 29.6652 22.9067 28.961 22.5638 28.3671L21.2708 26.1277C20.9279 25.5338 20.366 25.0987 19.7085 24.9184C19.0511 24.738 18.3521 24.827 17.7652 25.1658C13.3398 27.7208 10.754 23.242 9.46108 21.0026C8.16815 18.7632 5.58231 14.2844 10.0077 11.7294C10.5945 11.3905 11.0211 10.8297 11.1936 10.1701C11.3661 9.51057 11.2704 8.80638 10.9275 8.21245L9.63456 5.97305C9.29165 5.37912 8.72967 4.94411 8.07224 4.76372C7.41481 4.58333 6.71578 4.67233 6.12894 5.01114C0.597207 8.20489 -1.42891 12.3605 5.03569 23.5576C11.5003 34.7546 16.1122 35.0777 21.644 31.884Z" stroke="#1F2B6C" stroke-width="2" stroke-linecap="round" stroke-linejoin="round"/>
<path d="M33.42 22.6364C34.5954 18.1325 33.9405 13.3249 31.5992 9.26966C29.258 5.21446 25.4218 2.24346 20.9337 1.0094M26.6454 20.7776C26.9956 19.4399 27.0796 18.0433 26.8927 16.6674C26.7058 15.2914 26.2516 13.9632 25.5562 12.7586C24.8607 11.554 23.9375 10.4966 22.8394 9.64678C21.7412 8.79696 20.4897 8.17139 19.1562 7.80582M19.9073 18.9051C20.1423 18.0039 20.0111 17.0419 19.5426 16.2305C19.0742 15.4191 18.3067 14.8246 17.4087 14.5775" stroke="#1F2B6C" stroke-width="2" stroke-linecap="round" stroke-linejoin="round"/>
</svg>
